<?xml version="1.0" encoding="UTF-8"?>
<svg id="Layer_2" data-name="Layer 2" xmlns="http://www.w3.org/2000/svg" xmlns:xlink="http://www.w3.org/1999/xlink" viewBox="0 0 142.34 94.49">
  <defs>
    <style>
      .cls-1 {
        fill: url(#linear-gradient);
      }
    </style>
    <linearGradient id="linear-gradient" x1="6.8" y1="26.43" x2="142.21" y2="70.31" gradientUnits="userSpaceOnUse">
      <stop offset=".38" stop-color="#3c60cf"/>
      <stop offset=".92" stop-color="#007db9"/>
    </linearGradient>
  </defs>
  <g id="OBJECTS">
    <path class="cls-1" d="M142.29,29.56c-.04-12.25-7.82-23.51-19.35-27.64-2.25-.81-4.46-1.34-6.62-1.64v-.05c-1.25-.17-2.52-.24-3.8-.24-1.28,0-2.55,.07-3.8,.24v.05c-2.17,.3-4.38,.84-6.62,1.64-11.53,4.13-19.31,15.39-19.35,27.64-.04,12-.04,23.99-.04,35.99-.05,.56-.12,1.12-.22,1.66-1.13,6.11-6.33,9.89-12.88,9.44-5.43-.38-10.18-5.47-10.39-11.18-.08-2.2-.09-4.41-.09-6.62,.02-10.52,.04-21.03,.12-31.55,.01-1.31-.38-1.71-1.67-1.69-4.88,.06-9.77,.05-14.65,0-1.15-.01-1.58,.34-1.58,1.52,.06,8.17,.07,16.34,.08,24.51,0,4.74,.24,9.5-.11,14.22-.7,9.33-10.99,14.04-18.65,8.65-3.69-2.6-4.99-6.4-4.98-10.78,.04-11.5,.06-23,.08-34.5,0-.49-.07-.99-.1-1.52-.33,0-.53-.04-.69,0C7.93,30.43,1.47,38.59,.45,47.44-.18,52.96,.02,58.59,.06,64.17c.02,2.56,.32,5.16,.9,7.66,2.79,12.07,13.49,21.4,25.74,22.48,8.4,.74,15.88-1.63,22.24-7.23,1.04-.91,1.65-.86,2.7,.02,8.83,7.35,18.77,9.34,29.62,5.46,11.53-4.13,19.31-15.39,19.35-27.64,.04-12,.04-23.99,.04-35.99,.05-.56,.12-1.12,.22-1.66,1.06-5.71,5.67-9.39,11.64-9.47,5.96,.08,10.58,3.76,11.64,9.47,.21,1.14,.31,2.32,.31,3.49,.02,7.32-.03,14.65,0,21.97,.05,10.39,5.94,19.26,15.28,23.11,.04,.02,.08,.04,.13,.06,2.36,.95,2.46,.89,2.46-1.67-.01-14.88,0-29.77-.05-44.65Z"/>
  </g>
</svg>