<?xml version="1.0" encoding="UTF-8"?>
<!-- Generator: Adobe Illustrator 24.2.1, SVG Export Plug-In . SVG Version: 6.00 Build 0)  -->
<svg xmlns="http://www.w3.org/2000/svg" xmlns:xlink="http://www.w3.org/1999/xlink" id="Layer_1" x="0px" y="0px" width="441.363px" height="127.675px" viewBox="0 0 441.363 127.675" xml:space="preserve">
<g>
	<g>
		<path fill="#5776E7" d="M163.427,94.023c-0.537-1.704-0.898-3.68-1.077-5.925c-2.066,2.336-4.803,4.198-8.212,5.588    c-3.412,1.391-7.361,2.087-11.848,2.087c-7.63,0-13.218-1.682-16.762-5.048c-3.547-3.366-5.319-7.742-5.319-13.128    c0-4.756,0.762-8.55,2.289-11.377c1.526-2.827,3.635-5.048,6.328-6.664c2.692-1.616,5.901-2.805,9.626-3.568    c3.724-0.762,7.786-1.458,12.185-2.087c4.397-0.627,7.359-1.458,8.886-2.491c1.526-1.031,2.289-2.714,2.289-5.049    c0-2.154-1.01-3.837-3.03-5.048c-2.019-1.213-4.734-1.818-8.145-1.818c-4.039,0-6.933,0.899-8.684,2.693    c-1.75,1.796-2.85,4.173-3.299,7.136h-16.291c0.089-3.411,0.651-6.551,1.683-9.425c1.031-2.871,2.692-5.339,4.982-7.405    c2.289-2.064,5.272-3.656,8.953-4.78c3.68-1.12,8.166-1.682,13.464-1.682c5.203,0,9.626,0.585,13.262,1.751    c3.635,1.167,6.55,2.85,8.751,5.048c2.198,2.201,3.791,4.938,4.78,8.213c0.986,3.277,1.48,6.979,1.48,11.108v41.872H163.427z     M162.216,61.575c-0.898,0.899-2.2,1.616-3.904,2.154c-1.706,0.538-4.173,1.123-7.405,1.75c-5.028,0.989-8.483,2.244-10.368,3.77    c-1.885,1.527-2.827,3.725-2.827,6.597c0,4.937,2.827,7.405,8.483,7.405c2.243,0,4.329-0.381,6.26-1.145    c1.929-0.761,3.589-1.794,4.982-3.097c1.391-1.299,2.512-2.828,3.366-4.578c0.851-1.751,1.279-3.612,1.279-5.587L162.216,61.575z"></path>
		<polygon fill="#5776E7" points="205.435,94.023 181.739,27.782 201.262,27.782 215.129,71.537 229.131,27.782 247.576,27.782     223.745,94.023   "></polygon>
		<path fill="#5776E7" d="M255.384,3.547h17.503v16.291h-17.503V3.547z M255.384,27.781h17.503v66.241h-17.503V27.781z"></path>
		<path fill="#5776E7" d="M343.165,70.058c-0.451,3.86-1.549,7.361-3.299,10.502c-1.75,3.142-3.972,5.836-6.664,8.077    c-2.693,2.244-5.768,3.995-9.223,5.252c-3.456,1.256-7.203,1.884-11.242,1.884c-4.49,0-8.596-0.74-12.32-2.222    c-3.725-1.481-6.933-3.724-9.626-6.732c-2.693-3.006-4.78-6.732-6.261-11.174c-1.481-4.443-2.222-9.627-2.222-15.551    c0-5.924,0.741-11.04,2.222-15.349c1.481-4.307,3.567-7.829,6.261-10.568c2.693-2.736,5.944-4.779,9.76-6.126    c3.815-1.347,8.056-2.019,12.723-2.019c4.308,0,8.234,0.584,11.782,1.75c3.545,1.167,6.641,2.874,9.289,5.116    c2.647,2.244,4.734,4.937,6.261,8.078c1.525,3.143,2.424,6.643,2.693,10.502h-17.638c-0.451-3.41-1.817-6.08-4.106-8.011    c-2.289-1.929-5.095-2.895-8.415-2.895c-1.885,0-3.635,0.316-5.25,0.943c-1.617,0.63-3.03,1.683-4.242,3.164    c-1.212,1.481-2.178,3.456-2.895,5.924c-0.719,2.47-1.077,5.499-1.077,9.087c0,7.271,1.3,12.656,3.905,16.157    c2.601,3.501,5.608,5.251,9.02,5.251c3.41,0,6.327-0.943,8.752-2.828c2.423-1.885,3.814-4.621,4.173-8.212H343.165z"></path>
		<path fill="#5776E7" d="M394.594,65.48c0.269,5.028,1.726,9.021,4.376,11.982c2.646,2.962,6.126,4.443,10.434,4.443    c2.872,0,5.407-0.651,7.607-1.953c2.199-1.3,3.612-3.118,4.242-5.452h18.041c-2.066,6.822-5.654,12.073-10.771,15.752    c-5.116,3.681-11.221,5.52-18.311,5.52c-22.081,0-33.12-12.026-33.12-36.083c0-5.117,0.717-9.739,2.154-13.867    c1.434-4.128,3.521-7.674,6.26-10.637c2.737-2.962,6.08-5.227,10.031-6.799c3.949-1.569,8.483-2.356,13.598-2.356    c10.232,0,17.973,3.277,23.225,9.828c5.251,6.553,7.876,16.426,7.876,29.62H394.594z M422.195,54.44    c-0.091-2.424-0.518-4.555-1.28-6.395c-0.763-1.839-1.772-3.366-3.029-4.578c-1.258-1.212-2.692-2.108-4.307-2.692    c-1.616-0.583-3.277-0.875-4.983-0.875c-3.5,0-6.529,1.279-9.087,3.838c-2.558,2.557-4.018,6.125-4.376,10.703H422.195z"></path>
		<polygon fill="#5776E7" points="368.738,36.9 368.738,0 368.131,0 350.959,0 350.959,37.193 350.959,57.123 350.959,57.123     350.959,94.023 351.565,94.023 368.738,94.023 368.738,56.83 368.738,36.9   "></polygon>
		<polygon fill="#F6AC1A" points="72.505,26.127 65.326,39.205 74.128,56.834 91.162,26.011   "></polygon>
		<polygon fill="#5776E7" points="104.239,26.293 78.486,77.137 53.283,25.986 49.102,25.986 49.09,25.962 33.988,25.962     52.941,61.963 44.498,77.137 19.296,25.986 15.114,25.986 15.103,25.962 0,25.962 35.615,93.61 54.25,93.61 62.12,79.398     69.603,93.61 88.238,93.61 123.065,26.293   "></polygon>
	</g>
	<g>
		<g>
			<path fill="#676667" d="M164.257,127.217v-19.13h7.93c2.809,0,4.918,0.888,6.327,2.663c1.408,1.775,2.112,4.074,2.112,6.896     c0,2.822-0.706,5.123-2.119,6.902c-1.413,1.78-3.521,2.669-6.32,2.669H164.257z M167.606,124.482h3.298     c1.265,0,2.331-0.17,3.199-0.51s1.524-0.835,1.97-1.485c0.444-0.649,0.756-1.358,0.936-2.126c0.179-0.768,0.268-1.67,0.268-2.708     s-0.089-1.941-0.268-2.709c-0.18-0.768-0.491-1.479-0.936-2.133c-0.445-0.654-1.102-1.149-1.97-1.485s-1.935-0.504-3.199-0.504     h-3.298V124.482z"></path>
			<path fill="#676667" d="M185.124,127.217l7.341-19.13h3.56l7.367,19.13h-3.586l-1.792-5.064h-7.643l-1.792,5.064H185.124z      M191.287,119.601h5.836l-2.865-8.217h-0.026h-0.052L191.287,119.601z"></path>
			<path fill="#676667" d="M207.142,110.978v-2.892h15.493v2.892h-6.085v16.239h-3.35v-16.239H207.142z"></path>
			<path fill="#676667" d="M226.386,127.217l7.341-19.13h3.56l7.367,19.13h-3.586l-1.792-5.064h-7.643l-1.792,5.064H226.386z      M232.549,119.601h5.836l-2.865-8.217h-0.026h-0.052L232.549,119.601z"></path>
			<path fill="#676667" d="M260.283,120.845h3.35c0,1.396,0.445,2.427,1.335,3.095s2.059,1.001,3.507,1.001     c1.378,0,2.398-0.281,3.062-0.845c0.663-0.563,0.995-1.246,0.995-2.049c0-1.178-0.527-1.964-1.583-2.357     c-0.393-0.14-0.854-0.281-1.385-0.424c-0.531-0.143-1.229-0.331-2.093-0.563c-0.864-0.233-1.612-0.434-2.245-0.604     c-2.823-0.767-4.231-2.383-4.223-4.849c0-1.211,0.349-2.254,1.047-3.13s1.563-1.51,2.598-1.902     c1.033-0.392,2.147-0.588,3.343-0.588c2.094,0,3.843,0.541,5.247,1.623c1.404,1.082,2.106,2.578,2.106,4.488h-3.35     c-0.14-2.25-1.518-3.376-4.135-3.376c-0.925,0-1.74,0.196-2.446,0.588c-0.707,0.392-1.061,1.024-1.061,1.896     c0,1.229,0.76,2.053,2.278,2.472c0.018,0,0.435,0.11,1.251,0.331l2.528,0.668c0.872,0.224,1.453,0.377,1.744,0.46     c1.194,0.358,2.113,0.999,2.759,1.921c0.645,0.922,0.968,1.913,0.968,2.97c0,1.361-0.382,2.51-1.146,3.448     c-0.763,0.938-1.698,1.599-2.807,1.982c-1.107,0.384-2.329,0.576-3.663,0.576c-2.321,0-4.223-0.571-5.705-1.714     C261.077,124.818,260.318,123.113,260.283,120.845z"></path>
			<path fill="#676667" d="M284.022,124.777c-1.662-1.932-2.493-4.309-2.493-7.131c0-2.822,0.831-5.197,2.493-7.125     c1.661-1.928,3.886-2.892,6.673-2.892s5.012,0.964,6.674,2.892c1.661,1.928,2.492,4.303,2.492,7.125     c0,2.822-0.831,5.199-2.492,7.131c-1.662,1.932-3.887,2.898-6.674,2.898S285.683,126.709,284.022,124.777z M286.351,112.49     c-0.981,1.417-1.473,3.136-1.473,5.155s0.491,3.74,1.473,5.162s2.427,2.133,4.337,2.133c1.911,0,3.358-0.711,4.345-2.133     c0.985-1.422,1.479-3.143,1.479-5.162s-0.493-3.738-1.479-5.155c-0.986-1.417-2.434-2.126-4.345-2.126     C288.778,110.364,287.333,111.073,286.351,112.49z"></path>
			<path fill="#676667" d="M306.662,127.217v-19.13h3.35v16.239h9.723v2.892H306.662z"></path>
			<path fill="#676667" d="M325.565,120.334v-12.248h3.351v11.148c0,0.646,0.017,1.173,0.052,1.583s0.133,0.896,0.295,1.459     c0.161,0.563,0.395,1.003,0.7,1.321c0.305,0.319,0.747,0.596,1.328,0.831c0.58,0.235,1.29,0.354,2.133,0.354     c0.842,0,1.552-0.118,2.133-0.354c0.58-0.235,1.021-0.512,1.321-0.831c0.301-0.318,0.532-0.759,0.693-1.321     c0.161-0.563,0.26-1.051,0.295-1.466c0.034-0.414,0.052-0.94,0.052-1.577v-11.148h3.35v12.248c0,2.39-0.699,4.211-2.1,5.463     c-1.4,1.252-3.315,1.878-5.744,1.878c-2.43,0-4.347-0.626-5.751-1.878C326.267,124.546,325.565,122.724,325.565,120.334z"></path>
			<path fill="#676667" d="M347.048,110.978v-2.892h15.493v2.892h-6.085v16.239h-3.35v-16.239H347.048z"></path>
			<path fill="#676667" d="M368.516,127.217v-19.13h3.35v19.13H368.516z"></path>
			<path fill="#676667" d="M381.186,124.777c-1.662-1.932-2.493-4.309-2.493-7.131c0-2.822,0.831-5.197,2.493-7.125     c1.661-1.928,3.886-2.892,6.673-2.892s5.012,0.964,6.674,2.892c1.661,1.928,2.492,4.303,2.492,7.125     c0,2.822-0.831,5.199-2.492,7.131c-1.662,1.932-3.887,2.898-6.674,2.898S382.847,126.709,381.186,124.777z M383.515,112.49     c-0.981,1.417-1.473,3.136-1.473,5.155s0.491,3.74,1.473,5.162s2.427,2.133,4.337,2.133c1.911,0,3.358-0.711,4.345-2.133     c0.985-1.422,1.479-3.143,1.479-5.162s-0.493-3.738-1.479-5.155c-0.986-1.417-2.434-2.126-4.345-2.126     C385.942,110.364,384.497,111.073,383.515,112.49z"></path>
			<path fill="#676667" d="M403.682,127.217v-19.13h3.546l8.728,14.093h0.053v-14.093h3.192v19.13h-3.533l-8.714-14.066h-0.079     v14.066H403.682z"></path>
			<path fill="#676667" d="M425.765,120.845h3.35c0,1.396,0.445,2.427,1.335,3.095s2.059,1.001,3.507,1.001     c1.378,0,2.398-0.281,3.062-0.845c0.663-0.563,0.995-1.246,0.995-2.049c0-1.178-0.527-1.964-1.583-2.357     c-0.393-0.14-0.854-0.281-1.385-0.424c-0.531-0.143-1.229-0.331-2.093-0.563c-0.864-0.233-1.612-0.434-2.245-0.604     c-2.823-0.767-4.231-2.383-4.223-4.849c0-1.211,0.349-2.254,1.047-3.13s1.563-1.51,2.598-1.902     c1.033-0.392,2.147-0.588,3.343-0.588c2.094,0,3.843,0.541,5.247,1.623c1.404,1.082,2.106,2.578,2.106,4.488h-3.35     c-0.14-2.25-1.518-3.376-4.135-3.376c-0.925,0-1.74,0.196-2.446,0.588c-0.707,0.392-1.061,1.024-1.061,1.896     c0,1.229,0.76,2.053,2.278,2.472c0.018,0,0.435,0.11,1.251,0.331l2.528,0.668c0.872,0.224,1.453,0.377,1.744,0.46     c1.194,0.358,2.113,0.999,2.759,1.921c0.645,0.922,0.968,1.913,0.968,2.97c0,1.361-0.382,2.51-1.146,3.448     c-0.763,0.938-1.698,1.599-2.807,1.982c-1.107,0.384-2.329,0.576-3.663,0.576c-2.321,0-4.223-0.571-5.705-1.714     C426.559,124.818,425.8,123.113,425.765,120.845z"></path>
		</g>
	</g>
</g>
<g>
</g>
<g>
</g>
<g>
</g>
<g>
</g>
<g>
</g>
<g>
</g>
<g>
</g>
<g>
</g>
<g>
</g>
<g>
</g>
<g>
</g>
<g>
</g>
<g>
</g>
<g>
</g>
<g>
</g>
</svg>
