<svg width="143" height="95" viewBox="0 0 143 95" fill="none" xmlns="http://www.w3.org/2000/svg">
<g clip-path="url(#clip0_308_339)">
<path d="M142.29 29.56C142.25 17.31 134.47 6.04999 122.94 1.91999C120.69 1.10999 118.48 0.57999 116.32 0.27999V0.22999C115.07 0.0599902 113.8 -0.0100098 112.52 -0.0100098C111.24 -0.0100098 109.97 0.0599902 108.72 0.22999V0.27999C106.55 0.57999 104.34 1.11999 102.1 1.91999C90.57 6.04999 82.79 17.31 82.75 29.56C82.71 41.56 82.71 53.55 82.71 65.55C82.66 66.11 82.59 66.67 82.49 67.21C81.36 73.32 76.16 77.1 69.61 76.65C64.18 76.27 59.43 71.18 59.22 65.47C59.14 63.27 59.13 61.06 59.13 58.85C59.15 48.33 59.17 37.82 59.25 27.3C59.26 25.99 58.87 25.59 57.58 25.61C52.7 25.67 47.81 25.66 42.93 25.61C41.78 25.6 41.35 25.95 41.35 27.13C41.41 35.3 41.42 43.47 41.43 51.64C41.43 56.38 41.67 61.14 41.32 65.86C40.62 75.19 30.33 79.9 22.67 74.51C18.98 71.91 17.68 68.11 17.69 63.73C17.73 52.23 17.75 40.73 17.77 29.23C17.77 28.74 17.7 28.24 17.67 27.71C17.34 27.71 17.14 27.67 16.98 27.71C7.93001 30.43 1.47002 38.59 0.450016 47.44C-0.179984 52.96 0.0200161 58.59 0.0600161 64.17C0.0800161 66.73 0.380016 69.33 0.960016 71.83C3.75002 83.9 14.45 93.23 26.7 94.31C35.1 95.05 42.58 92.68 48.94 87.08C49.98 86.17 50.59 86.22 51.64 87.1C60.47 94.45 70.41 96.44 81.26 92.56C92.79 88.43 100.57 77.17 100.61 64.92C100.65 52.92 100.65 40.93 100.65 28.93C100.7 28.37 100.77 27.81 100.87 27.27C101.93 21.56 106.54 17.88 112.51 17.8C118.47 17.88 123.09 21.56 124.15 27.27C124.36 28.41 124.46 29.59 124.46 30.76C124.48 38.08 124.43 45.41 124.46 52.73C124.51 63.12 130.4 71.99 139.74 75.84C139.78 75.86 139.82 75.88 139.87 75.9C142.23 76.85 142.33 76.79 142.33 74.23C142.32 59.35 142.33 44.46 142.28 29.58L142.29 29.56Z" fill="url(#paint0_linear_308_339)"/>
</g>
<defs>
<linearGradient id="paint0_linear_308_339" x1="6.80002" y1="26.43" x2="142.21" y2="70.31" gradientUnits="userSpaceOnUse">
<stop offset="0.38" stop-color="white"/>
<stop offset="0.92" stop-color="white"/>
</linearGradient>
<clipPath id="clip0_308_339">
<rect width="142.34" height="94.49" fill="white"/>
</clipPath>
</defs>
</svg>
