<svg width="32" height="32" viewBox="0 0 32 32" fill="none" xmlns="http://www.w3.org/2000/svg">
<path d="M27.842 25.3684V16.5092C27.842 15.7953 27.6968 15.0889 27.4152 14.4329C27.1336 13.7769 26.7214 13.1851 26.2039 12.6934L17.8131 4.72369C17.324 4.25906 16.6752 4 16.0006 4C15.326 4 14.6772 4.25906 14.1881 4.72369L5.79599 12.6934C5.27843 13.1851 4.86631 13.7769 4.58468 14.4329C4.30306 15.0889 4.15784 15.7953 4.15784 16.5092V25.3684C4.15784 26.0664 4.43509 26.7357 4.92861 27.2292C5.42213 27.7227 6.09148 28 6.78942 28H25.2105C25.9084 28 26.5778 27.7227 27.0713 27.2292C27.5648 26.7357 27.842 26.0664 27.842 25.3684Z" stroke="white" stroke-width="2" stroke-linecap="round" stroke-linejoin="round"/>
<path d="M12.0526 20.1052C12.0526 19.4073 12.3299 18.738 12.8234 18.2444C13.3169 17.7509 13.9863 17.4737 14.6842 17.4737H17.3158C18.0137 17.4737 18.6831 17.7509 19.1766 18.2444C19.6701 18.738 19.9473 19.4073 19.9473 20.1052V28H12.0526V20.1052Z" stroke="white" stroke-width="2" stroke-linecap="round" stroke-linejoin="round"/>
</svg>
