<svg width="32" height="32" viewBox="0 0 32 32" fill="none" xmlns="http://www.w3.org/2000/svg">
<path d="M7.83179 9.61359H25.4455C25.8024 9.6136 26.1553 9.6884 26.4815 9.83316C26.8078 9.97792 27.1 10.1894 27.3395 10.4541C27.579 10.7187 27.7603 11.0306 27.8719 11.3696C27.9835 11.7086 28.0228 12.0672 27.9873 12.4223L27.2209 20.086C27.1579 20.7164 26.8629 21.3008 26.3932 21.7259C25.9235 22.151 25.3126 22.3864 24.6791 22.3864H12.4811C11.8903 22.3866 11.3177 22.1821 10.8608 21.8076C10.4039 21.4331 10.0909 20.9118 9.97506 20.3325L7.83179 9.61359Z" stroke="white" stroke-width="2" stroke-linejoin="round"/>
<path d="M7.83184 9.61359L6.79724 5.47137C6.72805 5.19516 6.56855 4.95 6.34407 4.77481C6.1196 4.59963 5.84302 4.50448 5.55828 4.50447H4M11.6637 27.4955H14.2182M21.8819 27.4955H24.4365" stroke="white" stroke-width="2" stroke-linecap="round" stroke-linejoin="round"/>
</svg>
