<svg width="32" height="32" viewBox="0 0 32 32" fill="none" xmlns="http://www.w3.org/2000/svg">
<path d="M25.5993 16.164H15.836V6.40074C15.836 6.28075 15.7378 6.18257 15.6178 6.18257H14.9087C13.4761 6.18022 12.0572 6.46117 10.7336 7.00924C9.41002 7.55731 8.20784 8.36169 7.19627 9.37609C6.20006 10.3692 5.40629 11.5465 4.85908 12.8423C4.28966 14.1864 3.99747 15.6316 4.00002 17.0913C3.99767 18.5239 4.27861 19.9428 4.82668 21.2664C5.37475 22.59 6.17913 23.7922 7.19354 24.8037C8.19441 25.8046 9.36165 26.5928 10.6598 27.1409C12.0038 27.7103 13.449 28.0025 14.9087 28C16.3413 28.0023 17.7602 27.7214 19.0838 27.1733C20.4074 26.6252 21.6096 25.8209 22.6212 24.8065C23.6221 23.8056 24.4102 22.6384 24.9584 21.3402C25.5278 19.9962 25.82 18.551 25.8174 17.0913V16.3822C25.8174 16.2622 25.7193 16.164 25.5993 16.164ZM21.2821 23.522C20.4377 24.3599 19.4362 25.0229 18.335 25.4731C17.2339 25.9233 16.0547 26.1518 14.8651 26.1455C12.4624 26.1346 10.2043 25.1937 8.50531 23.4947C6.79537 21.7847 5.8545 19.5103 5.8545 17.0913C5.8545 14.6723 6.79537 12.3978 8.50531 10.6879C9.99435 9.19883 11.9116 8.29068 13.9815 8.08341V18.0185H23.9166C23.7066 20.0994 22.7903 22.0275 21.2821 23.522ZM27.9992 14.6477L27.9283 13.8787C27.6965 11.3669 26.581 8.99702 24.7866 7.20799C22.9908 5.41568 20.6258 4.30645 18.0995 4.07173L17.3277 4.00083C17.1996 3.98992 17.0905 4.0881 17.0905 4.21628V14.6914C17.0905 14.8114 17.1886 14.9095 17.3086 14.9095L27.781 14.8823C27.9092 14.8823 28.0101 14.7732 27.9992 14.6477ZM18.9395 13.0605V6.06257C20.6574 6.42215 22.234 7.27294 23.4775 8.51158C24.7238 9.75517 25.5774 11.3369 25.932 13.0414L18.9395 13.0605Z" fill="white"/>
</svg>
