<svg width="32" height="32" viewBox="0 0 32 32" fill="none" xmlns="http://www.w3.org/2000/svg">
<path d="M16.6733 9.33024H15.331C15.2082 9.33024 15.1077 9.4307 15.1077 9.55349V17.2363C15.1077 17.3088 15.1412 17.3758 15.1998 17.4177L19.8128 20.786C19.9133 20.8586 20.0528 20.8391 20.1254 20.7386L20.9235 19.6502C20.9989 19.547 20.9766 19.4074 20.8761 19.3377L16.8966 16.4605V9.55349C16.8966 9.4307 16.7961 9.33024 16.6733 9.33024ZM22.8073 11.4288L27.1831 12.4977C27.3226 12.5312 27.4593 12.4251 27.4593 12.2828L27.4817 7.77582C27.4817 7.58884 27.2668 7.48279 27.1217 7.6L22.7235 11.0354C22.6903 11.0611 22.665 11.0956 22.6505 11.1351C22.6361 11.1746 22.633 11.2173 22.6418 11.2584C22.6505 11.2995 22.6707 11.3373 22.7 11.3675C22.7292 11.3976 22.7664 11.4189 22.8073 11.4288ZM27.4873 19.8316L25.9049 19.2874C25.8498 19.2685 25.7894 19.272 25.7367 19.297C25.684 19.322 25.6432 19.3667 25.6231 19.4214C25.57 19.5637 25.5142 19.7033 25.4556 19.8428C24.9589 21.0177 24.2473 22.0753 23.3375 22.9823C22.4378 23.8848 21.3716 24.6041 20.198 25.1005C18.9821 25.6145 17.6752 25.8784 16.3552 25.8763C15.0212 25.8763 13.7291 25.6167 12.5124 25.1005C11.3387 24.6041 10.2725 23.8848 9.37284 22.9823C8.46586 22.0753 7.75423 21.0177 7.2547 19.8428C6.74349 18.6263 6.48157 17.3196 6.48446 16C6.48446 14.666 6.744 13.3712 7.26028 12.1544C7.75702 10.9795 8.46865 9.92186 9.37842 9.01489C10.2781 8.11243 11.3443 7.39309 12.518 6.89675C13.7291 6.38047 15.024 6.12093 16.358 6.12093C17.6919 6.12093 18.984 6.38047 20.2007 6.89675C21.3744 7.39309 22.4406 8.11243 23.3403 9.01489C23.6249 9.30233 23.8928 9.60093 24.1384 9.91628L25.8073 8.61024C23.611 5.80279 20.1924 3.99721 16.3524 4C9.66586 4.00279 4.29656 9.43349 4.36353 16.1228C4.43051 22.6949 9.7747 28 16.358 28C21.5347 28 25.944 24.7181 27.624 20.1219C27.6659 20.0047 27.6045 19.8735 27.4873 19.8316Z" fill="white"/>
</svg>
