<svg width="24" height="24" viewBox="0 0 24 24" fill="none" xmlns="http://www.w3.org/2000/svg">
<path d="M12 7C10.8507 6.99925 9.73626 7.39445 8.8442 8.11908C7.95215 8.84372 7.33696 9.85354 7.10218 10.9786C6.8674 12.1036 7.02737 13.2752 7.55516 14.2962C8.08295 15.3171 8.94634 16.125 10 16.584V19H14V16.584C15.0527 16.1243 15.915 15.3162 16.4421 14.2955C16.9691 13.2748 17.1287 12.1039 16.894 10.9794C16.6594 9.85492 16.0448 8.84551 15.1535 8.12082C14.2623 7.39613 13.1487 7.00035 12 7Z" fill="#4363DA"/>
<path d="M21 12H22M18.5 5.5L19.5 4.5M12 3V2M5.5 5.5L4.5 4.5M3 12H2M10 22H14M17 12C16.9997 11.0986 16.7558 10.2141 16.294 9.43993C15.8323 8.66581 15.1698 8.03092 14.3768 7.60245C13.5837 7.17397 12.6896 6.96784 11.789 7.00588C10.8884 7.04391 10.0149 7.3247 9.26079 7.81851C8.50671 8.31233 7.90014 9.00082 7.50527 9.81112C7.11041 10.6214 6.94194 11.5234 7.01769 12.4216C7.09343 13.3198 7.41058 14.1808 7.93557 14.9135C8.46056 15.6463 9.17386 16.2234 10 16.584V19H14V16.584C14.8918 16.1946 15.6507 15.5536 16.1835 14.7393C16.7164 13.9251 17.0001 12.9731 17 12V12Z" stroke="#4363DA" stroke-width="2" stroke-linecap="round" stroke-linejoin="round"/>
</svg>
