<svg width="32" height="32" viewBox="0 0 32 32" fill="none" xmlns="http://www.w3.org/2000/svg">
<path d="M16.0001 20.8C18.6473 20.8 20.8001 18.6472 20.8001 16C20.8001 13.3528 18.6473 11.2 16.0001 11.2C13.3529 11.2 11.2001 13.3528 11.2001 16C11.2001 18.6472 13.3529 20.8 16.0001 20.8ZM16.0001 13.6C17.3009 13.6 18.4001 14.6992 18.4001 16C18.4001 17.3008 17.3009 18.4 16.0001 18.4C14.6993 18.4 13.6001 17.3008 13.6001 16C13.6001 14.6992 14.6993 13.6 16.0001 13.6Z" fill="white"/>
<path d="M5.01402 20.9632L6.21402 23.0392C6.85122 24.1396 8.38482 24.5524 9.49002 23.9152L10.1248 23.548C10.8191 24.0941 11.5845 24.543 12.4 24.8824V25.6C12.4 26.9236 13.4764 28 14.8 28H17.2C18.5236 28 19.6 26.9236 19.6 25.6V24.8824C20.4153 24.543 21.1806 24.0945 21.8752 23.5492L22.51 23.9164C23.6176 24.5524 25.1476 24.142 25.7872 23.0392L26.986 20.9644C27.304 20.4132 27.3903 19.7584 27.2258 19.1437C27.0613 18.529 26.6596 18.0047 26.1088 17.686L25.5028 17.3356C25.6317 16.4507 25.6317 15.5517 25.5028 14.6668L26.1088 14.3164C26.6593 13.9975 27.0609 13.4732 27.2253 12.8586C27.3898 12.244 27.3037 11.5892 26.986 11.038L25.7872 8.9632C25.15 7.8592 23.6176 7.4452 22.51 8.0848L21.8752 8.452C21.181 7.90589 20.4155 7.45696 19.6 7.1176V6.4C19.6 5.0764 18.5236 4 17.2 4H14.8C13.4764 4 12.4 5.0764 12.4 6.4V7.1176C11.5848 7.45701 10.8194 7.9055 10.1248 8.4508L9.49002 8.0836C8.38122 7.4464 6.85002 7.8592 6.21282 8.962L5.01402 11.0368C4.696 11.588 4.60976 12.2428 4.77423 12.8575C4.93871 13.4722 5.34045 13.9965 5.89122 14.3152L6.49722 14.6656C6.3679 15.5501 6.3679 16.4487 6.49722 17.3332L5.89122 17.6836C5.34062 18.0028 4.93906 18.5272 4.77461 19.1421C4.61017 19.7569 4.69627 20.4118 5.01402 20.9632ZM9.00522 17.6536C8.86972 17.1128 8.80081 16.5575 8.80002 16C8.80002 15.4456 8.86962 14.8888 9.00402 14.3464C9.06731 14.0936 9.04649 13.827 8.94473 13.5871C8.84296 13.3472 8.66578 13.147 8.44002 13.0168L7.09242 12.2368L8.29002 10.162L9.66402 10.9564C9.88809 11.0861 10.1482 11.1395 10.4052 11.1088C10.6623 11.0781 10.9024 10.9648 11.0896 10.786C11.9014 10.0139 12.8804 9.43938 13.9504 9.1072C14.1962 9.03216 14.4114 8.88019 14.5644 8.67367C14.7173 8.46715 14.7999 8.21699 14.8 7.96V6.4H17.2V7.96C17.2001 8.21699 17.2827 8.46715 17.4357 8.67367C17.5886 8.88019 17.8038 9.03216 18.0496 9.1072C19.1194 9.43985 20.0983 10.0143 20.9104 10.786C21.0978 10.9645 21.3379 11.0775 21.5949 11.1082C21.8518 11.1389 22.1118 11.0857 22.336 10.9564L23.7088 10.1632L24.9088 12.238L23.56 13.0168C23.3344 13.1471 23.1573 13.3474 23.0556 13.5873C22.9538 13.8271 22.9329 14.0936 22.996 14.3464C23.1304 14.8888 23.2 15.4456 23.2 16C23.2 16.5532 23.1304 17.11 22.9948 17.6536C22.9318 17.9065 22.9529 18.1731 23.0549 18.413C23.1569 18.6529 23.3342 18.853 23.56 18.9832L24.9076 19.762L23.71 21.8368L22.336 21.0436C22.112 20.9137 21.8519 20.8602 21.5948 20.8909C21.3377 20.9216 21.0975 21.035 20.9104 21.214C20.0986 21.9861 19.1196 22.5606 18.0496 22.8928C17.8038 22.9678 17.5886 23.1198 17.4357 23.3263C17.2827 23.5328 17.2001 23.783 17.2 24.04L17.2024 25.6H14.8V24.04C14.7999 23.783 14.7173 23.5328 14.5644 23.3263C14.4114 23.1198 14.1962 22.9678 13.9504 22.8928C12.8806 22.5601 11.9018 21.9857 11.0896 21.214C10.9028 21.0345 10.6625 20.9209 10.4052 20.8903C10.1479 20.8598 9.88769 20.914 9.66402 21.0448L8.29122 21.8392L7.09122 19.7644L8.44002 18.9832C8.66585 18.853 8.84316 18.6529 8.94514 18.413C9.04711 18.1731 9.0682 17.9065 9.00522 17.6536Z" fill="white"/>
</svg>
