<svg width="8" height="6" viewBox="0 0 8 6" fill="none" xmlns="http://www.w3.org/2000/svg">
<path d="M3.67063 5.8276C3.70733 5.8809 3.75644 5.92448 3.81372 5.95459C3.871 5.98469 3.93475 6.00043 3.99946 6.00043C4.06417 6.00043 4.12791 5.98469 4.1852 5.95459C4.24248 5.92448 4.29158 5.8809 4.32828 5.8276L7.92857 0.627192C7.97024 0.56721 7.99468 0.496954 7.99923 0.424058C8.00377 0.351162 7.98826 0.278413 7.95436 0.213717C7.92047 0.14902 7.86949 0.0948491 7.80697 0.05709C7.74445 0.019331 7.67278 -0.00057231 7.59974 -0.000457268H0.399176C0.326308 -0.000156281 0.2549 0.020003 0.192632 0.0578525C0.130364 0.0957019 0.079592 0.14981 0.0457757 0.214357C0.0119594 0.278904 -0.00362155 0.351448 0.000708374 0.424188C0.0050383 0.496929 0.0291153 0.567112 0.0703501 0.627192L3.67063 5.8276Z" fill="#686868"/>
</svg>
