<svg width="18" height="18" viewBox="0 0 18 18" fill="none" xmlns="http://www.w3.org/2000/svg">
<path fill-rule="evenodd" clip-rule="evenodd" d="M7.25403 3.75193C6.32506 3.75193 5.43414 4.12095 4.77726 4.7778C4.12038 5.43465 3.75134 6.32553 3.75134 7.25445C3.75134 8.18338 4.12038 9.07426 4.77726 9.73111C5.43414 10.388 6.32506 10.757 7.25403 10.757C8.18301 10.757 9.07393 10.388 9.73081 9.73111C10.3877 9.07426 10.7567 8.18338 10.7567 7.25445C10.7567 6.32553 10.3877 5.43465 9.73081 4.7778C9.07393 4.12095 8.18301 3.75193 7.25403 3.75193ZM2 7.25445C1.99989 6.4276 2.19496 5.61239 2.56934 4.87514C2.94371 4.13788 3.48682 3.4994 4.1545 3.01161C4.82218 2.52382 5.59557 2.2005 6.41177 2.06795C7.22797 1.9354 8.06393 1.99735 8.85167 2.24878C9.63941 2.50021 10.3567 2.93401 10.9451 3.5149C11.5336 4.09578 11.9766 4.80736 12.2382 5.59175C12.4998 6.37614 12.5726 7.21119 12.4506 8.02899C12.3285 8.8468 12.0152 9.62426 11.5361 10.2981L15.7542 14.5161C15.9137 14.6812 16.002 14.9024 16 15.132C15.998 15.3616 15.9059 15.5812 15.7435 15.7435C15.5812 15.9059 15.3615 15.998 15.1319 16C14.9023 16.002 14.6811 15.9137 14.516 15.7542L10.2987 11.5372C9.51271 12.0961 8.58799 12.4278 7.62591 12.4961C6.66384 12.5643 5.70153 12.3665 4.84445 11.9242C3.98736 11.4819 3.26857 10.8122 2.76685 9.98848C2.26512 9.1648 1.99981 8.2189 2 7.25445Z" fill="#A7A7A7"/>
</svg>
