<svg width="18" height="18" viewBox="0 0 18 18" fill="none" xmlns="http://www.w3.org/2000/svg">
<path d="M9.00003 10.6875C9.93201 10.6875 10.6875 9.93198 10.6875 9C10.6875 8.06802 9.93201 7.3125 9.00003 7.3125C8.06805 7.3125 7.31253 8.06802 7.31253 9C7.31253 9.93198 8.06805 10.6875 9.00003 10.6875Z" fill="#474747"/>
<path d="M9.00003 16.3125C9.93201 16.3125 10.6875 15.557 10.6875 14.625C10.6875 13.693 9.93201 12.9375 9.00003 12.9375C8.06805 12.9375 7.31253 13.693 7.31253 14.625C7.31253 15.557 8.06805 16.3125 9.00003 16.3125Z" fill="#474747"/>
<path d="M9.00003 5.0625C9.93201 5.0625 10.6875 4.30698 10.6875 3.375C10.6875 2.44302 9.93201 1.6875 9.00003 1.6875C8.06805 1.6875 7.31253 2.44302 7.31253 3.375C7.31253 4.30698 8.06805 5.0625 9.00003 5.0625Z" fill="#474747"/>
</svg>
