<svg width="18" height="20" viewBox="0 0 18 20" fill="none" xmlns="http://www.w3.org/2000/svg">
<path d="M17.5292 13.2071L15.7292 11.3971V6.93709C15.7532 5.28091 15.1771 3.672 14.1074 2.40742C13.0376 1.14285 11.5465 0.308022 9.90923 0.0570866C8.95904 -0.0680462 7.99309 0.0109015 7.07583 0.288662C6.15858 0.566423 5.3111 1.03661 4.58995 1.66785C3.86881 2.29909 3.29057 3.07686 2.89384 3.94928C2.4971 4.8217 2.29098 5.7687 2.28923 6.72709V11.3971L0.489228 13.2071C0.263134 13.437 0.109812 13.7284 0.0484286 14.0449C-0.0129547 14.3614 0.0203246 14.689 0.144106 14.9867C0.267887 15.2844 0.476679 15.5391 0.744379 15.7188C1.01208 15.8985 1.32681 15.9953 1.64923 15.9971H5.00923V16.3371C5.05594 17.3523 5.50318 18.3076 6.25295 18.9936C7.00273 19.6797 7.99388 20.0405 9.00923 19.9971C10.0246 20.0405 11.0157 19.6797 11.7655 18.9936C12.5153 18.3076 12.9625 17.3523 13.0092 16.3371V15.9971H16.3692C16.6916 15.9953 17.0064 15.8985 17.2741 15.7188C17.5418 15.5391 17.7506 15.2844 17.8743 14.9867C17.9981 14.689 18.0314 14.3614 17.97 14.0449C17.9086 13.7284 17.7553 13.437 17.5292 13.2071V13.2071ZM11.0092 16.3371C10.9538 16.8181 10.7149 17.2591 10.3423 17.5684C9.96973 17.8776 9.49221 18.0312 9.00923 17.9971C8.52624 18.0312 8.04873 17.8776 7.67616 17.5684C7.30358 17.2591 7.06469 16.8181 7.00923 16.3371V15.9971H11.0092V16.3371ZM2.51923 13.9971L3.69923 12.8171C3.8864 12.631 4.03489 12.4098 4.13615 12.1661C4.23741 11.9223 4.28944 11.661 4.28923 11.3971V6.72709C4.28977 6.05249 4.43461 5.38581 4.71402 4.7718C4.99343 4.15778 5.40095 3.61064 5.90923 3.16709C6.41065 2.71277 7.0048 2.37284 7.65057 2.17082C8.29634 1.9688 8.97829 1.90952 9.64923 1.99709C10.8057 2.18486 11.8554 2.7841 12.6051 3.68447C13.3548 4.58483 13.754 5.72572 13.7292 6.89709V11.3971C13.7277 11.6603 13.7782 11.9212 13.8777 12.1649C13.9772 12.4086 14.1239 12.6302 14.3092 12.8171L15.4992 13.9971H2.51923Z" fill="#C6C6C6"/>
</svg>
